<?xml version="1.0" encoding="UTF-8" standalone="no"?>
<!DOCTYPE svg PUBLIC "-//W3C//DTD SVG 1.1//EN" "http://www.w3.org/Graphics/SVG/1.1/DTD/svg11.dtd">
<svg
   xmlns="http://www.w3.org/2000/svg"
   version="1.1"
   id="Layer_1"
   x="0px"
   y="0px"
   width="403"
   height="84"
   viewBox="0 0 402.99999 83.999996"
   enable-background="new 0 0 841.89 595.28"
   xml:space="preserve"
>
<path
   fill="#595959" 
   d="m 24.012,2.4989938 c 10.873,0 18.54,6.234 21.961,13.4379992 4.034,-6.9649992 10.753,-13.4379992 22.485,-13.4379992 14.786,0 23.951,10.3839992 23.951,26.0249982 v 37.753001 h -5.99 V 29.257992 c 0,-13.437999 -6.967,-21.2639982 -18.45,-21.2639982 -10.508,0 -19.674,8.0679992 -19.674,21.9929982 V 66.275993 H 42.306 V 28.882992 C 42.306,15.935993 35.223,7.9929938 24.105,7.9929938"
   />
<path
   fill="#595959" 
   d="m 134.335,60.293993 c 9.654,0 16.252,-4.275 21.381,-9.775 l 4.156,3.667 c -6.353,6.843 -13.811,11.735 -25.778,11.735 -16.378,0 -30.547,-13.078 -30.547,-32.504001 v -0.248 c 0,-18.078999 12.707,-32.49899829 29.567,-32.49899829 17.473,0 28.592,14.17299929 28.592,32.62499829 v 0.239 c 0,0.86 0,1.226 -0.12,2.203 h -51.691 c 1.104,15.520001 12.223,24.557001 24.44,24.557001 M 155.232,30.362992 C 154.378,17.775993 147.166,6.1669938 132.871,6.1669938 c -12.341,0 -21.872,10.3839992 -22.976,24.1959982 h 45.337 z"
   />
<path
   fill="#595959" 
   d="m 206.069,7.7559938 c -14.416,0 -27.001,10.8749992 -27.001,31.1569982 v 25.539001 h -5.989 V 2.1379938 h 5.989 V 19.851993 C 183.952,8.7339938 194.34,0.66999371 206.682,1.1569937 v 6.6000001 h -0.613 z"
   />
<path
   fill="#595959" 
   d="m 240.29,65.920993 c -17.962,0 -31.77,-14.912 -31.77,-32.387001 v -0.239 c 0,-17.474999 13.93,-32.62499829 31.77,-32.62499829 11.731,0 19.065,5.37400009 24.931,11.48699929 l -4.279,4.397 c -5.379,-5.501 -11.488,-10.2629992 -20.773,-10.2629992 -14.173,0 -25.174,11.8529992 -25.174,26.7599982 v 0.243 c 0,15.029001 11.366,26.999001 25.665,26.999001 8.794,0 15.638,-4.519 20.895,-10.38 l 4.149,3.658 c -6.349,7.215 -13.926,12.35 -25.414,12.35"
   />
<path
   fill="#595959" 
   d="m 319.236,64.452993 v -10.389 c -4.275,5.987 -11.97,11.857 -23.827,11.857 -11.605,0 -24.07,-6.604 -24.07,-19.552 v -0.243 c 0,-12.957001 11.118,-20.286001 27.246,-20.286001 8.682,0 14.664,1.099 20.651,2.689 v -2.689 c 0,-12.582999 -7.699,-19.0619982 -20.525,-19.0619982 -7.577,0 -13.808,2.081 -19.552,5.0099992 l -2.198,-5.2529992 c 6.843,-3.176 13.564,-5.3790001 22.115,-5.3790001 16.007,0 26.025,8.3080001 26.025,24.4389983 v 38.856001 h -5.865 z m 0.122,-30.423001 c -5.254,-1.347 -12.219,-2.815 -21.139,-2.815 -13.195,0 -20.524,5.87 -20.524,14.547001 v 0.243 c 0,9.037 8.555,14.29 18.083,14.29 12.709,0 23.58,-7.82 23.58,-19.178001 v -7.087 z"
   />
<path
   fill="#595959" 
   d="m 372.152,65.920993 c -12.465,0 -20.525,-7.091 -25.656,-14.912 v 32.990996 h -5.987 V 2.1379938 h 5.987 V 16.067993 c 5.374,-8.1859992 13.317,-15.39699929 25.656,-15.39699929 15.033,0 30.306,12.09599929 30.306,32.38199829 v 0.243 c 0,20.277001 -15.273,32.625001 -30.306,32.625001 m 23.827,-32.626001 c 0,-16.375999 -11.357,-26.8819982 -24.436,-26.8819982 -12.952,0 -25.417,10.8709992 -25.417,26.7559982 v 0.248 c 0,16.007001 12.465,26.756001 25.417,26.756001 13.561,0 24.436,-9.894 24.436,-26.639001 v -0.239 z"
   />
<path
   fill="#595959" 
   d="M 24.501,7.9959938 C 12.987,7.9959938 6,15.820993 6,29.259992 V 66.278993 H 0 V 28.525992 C 0,12.883993 9.188,2.5009938 24.012,2.5009938"
   />
</svg>